G04*
G04 #@! TF.GenerationSoftware,Altium Limited,Altium Designer,23.4.1 (23)*
G04*
G04 Layer_Physical_Order=2*
G04 Layer_Color=16711680*
%FSLAX44Y44*%
%MOMM*%
G71*
G04*
G04 #@! TF.SameCoordinates,D1F9F651-E120-4EB1-B4AC-D2E1D016148F*
G04*
G04*
G04 #@! TF.FilePolarity,Positive*
G04*
G01*
G75*
%ADD10C,0.2500*%
%ADD11C,0.3000*%
%ADD50C,0.5000*%
%ADD51C,0.4000*%
G04:AMPARAMS|DCode=52|XSize=1.8mm|YSize=1mm|CornerRadius=0.25mm|HoleSize=0mm|Usage=FLASHONLY|Rotation=180.000|XOffset=0mm|YOffset=0mm|HoleType=Round|Shape=RoundedRectangle|*
%AMROUNDEDRECTD52*
21,1,1.8000,0.5000,0,0,180.0*
21,1,1.3000,1.0000,0,0,180.0*
1,1,0.5000,-0.6500,0.2500*
1,1,0.5000,0.6500,0.2500*
1,1,0.5000,0.6500,-0.2500*
1,1,0.5000,-0.6500,-0.2500*
%
%ADD52ROUNDEDRECTD52*%
%ADD53O,2.1000X1.0000*%
%ADD54C,0.6500*%
%ADD55C,3.5000*%
%ADD56C,0.5000*%
%ADD57C,0.4000*%
%ADD58C,0.3000*%
%ADD59C,0.6000*%
G36*
X1654302Y354076D02*
X1654653Y353725D01*
X1654167Y352552D01*
X1503172D01*
X1501902Y351282D01*
X1500124Y353060D01*
Y377952D01*
X1501902Y379730D01*
X1505988D01*
Y378680D01*
X1506305Y377915D01*
X1507070Y377598D01*
X1513070D01*
X1513835Y377915D01*
X1514152Y378680D01*
Y379730D01*
X1641988D01*
Y378680D01*
X1642305Y377915D01*
X1643070Y377598D01*
X1649070D01*
X1649835Y377915D01*
X1650152Y378680D01*
Y379730D01*
X1654302D01*
Y354076D01*
D02*
G37*
D10*
X1594504Y654257D02*
X1627742D01*
X1593445Y662444D02*
Y662797D01*
X1669340Y667841D02*
X1672336Y664845D01*
X1596592Y659297D02*
X1624948D01*
X1672336Y664845D02*
X1672717D01*
X1633491Y667841D02*
X1669340D01*
X1627742Y654257D02*
X1635786Y662301D01*
X1593445Y662444D02*
X1596592Y659297D01*
X1593195Y663047D02*
X1593445Y662797D01*
X1667752Y662301D02*
X1669800Y660253D01*
X1589632Y659130D02*
X1594504Y654257D01*
X1589278Y659130D02*
X1589632D01*
X1635786Y662301D02*
X1667752D01*
X1624948Y659297D02*
X1633491Y667841D01*
X1669800Y659927D02*
Y660253D01*
Y659927D02*
X1670070Y659658D01*
D11*
X1521968Y532376D02*
Y560578D01*
Y532376D02*
X1522222Y532122D01*
Y504190D02*
Y532122D01*
X1516126Y498094D02*
X1522222Y504190D01*
X1530220Y499483D02*
Y560454D01*
X1530096Y560578D02*
X1530220Y560454D01*
X1538224Y549656D02*
Y560832D01*
Y549656D02*
X1617218Y470662D01*
X1545590Y561086D02*
X1625346Y481330D01*
Y390398D02*
Y481330D01*
X1579674Y598884D02*
Y601449D01*
X1585214Y601179D02*
Y603743D01*
X1579674Y598884D02*
X1658366Y520192D01*
X1585214Y601179D02*
X1660661Y525732D01*
X1583591Y605366D02*
X1585214Y603743D01*
X1658366Y520192D02*
X1682750D01*
X1660661Y525732D02*
X1682750D01*
X1599395Y596689D02*
Y601515D01*
X1663446Y532638D02*
X1683004D01*
X1599395Y596689D02*
X1663446Y532638D01*
X1534922Y635000D02*
X1659382Y510540D01*
X1682750D01*
X1603756Y604266D02*
X1619758D01*
X1581150Y619760D02*
X1599395Y601515D01*
X1582674Y625348D02*
X1603756Y604266D01*
X1619758D02*
X1689862Y534162D01*
Y515112D02*
Y534162D01*
X1553210Y683514D02*
Y720598D01*
Y683514D02*
X1686306Y550418D01*
X1504188Y574294D02*
X1578864D01*
X1435354Y669798D02*
X1494028Y611124D01*
Y441198D02*
Y611124D01*
X1516126Y431292D02*
X1531557Y415861D01*
Y402781D02*
Y415861D01*
X1531366Y402590D02*
X1531557Y402781D01*
X1543304Y402336D02*
Y413004D01*
X1522984Y433324D02*
X1543304Y413004D01*
X1546841Y394462D02*
X1564132D01*
X1542523Y390144D02*
X1546841Y394462D01*
X1525503Y390144D02*
X1542523D01*
X1523746Y391901D02*
X1525503Y390144D01*
X1523746Y391901D02*
Y411480D01*
X1534922Y635000D02*
Y717550D01*
X1590802Y682244D02*
X1633101D01*
X1634371Y683514D01*
X1676400D01*
X1686814Y673100D01*
Y647954D02*
Y673100D01*
X1494028Y441198D02*
X1523746Y411480D01*
X1516126Y431292D02*
Y498094D01*
X1522984Y433324D02*
Y492247D01*
X1530220Y499483D01*
X1617218Y392176D02*
Y470662D01*
D50*
X1545590Y475996D02*
X1581150D01*
X1641348D02*
X1658366Y458978D01*
X1636014Y475996D02*
X1641348D01*
X1658366Y458978D02*
X1722120D01*
D51*
X1619250Y594614D02*
X1620146Y593718D01*
Y582302D02*
Y593718D01*
X1576070Y567436D02*
X1580642Y562864D01*
X1503906Y562582D02*
X1508760Y567436D01*
X1576070D01*
X1503906Y522958D02*
Y562582D01*
X1434338Y493014D02*
Y659638D01*
X1435608Y660908D01*
X1434338Y493014D02*
X1459992Y467360D01*
X1544574Y729742D02*
X1596898Y782066D01*
X1643126D01*
X1621282Y730504D02*
X1621536Y730758D01*
X1641094D01*
D52*
X1752092Y479786D02*
D03*
Y566186D02*
D03*
X1751838Y615168D02*
D03*
Y701568D02*
D03*
D53*
X1710292Y479786D02*
D03*
Y566186D02*
D03*
X1710038Y615168D02*
D03*
Y701568D02*
D03*
D54*
X1715292Y551886D02*
D03*
Y494086D02*
D03*
X1715038Y687268D02*
D03*
Y629468D02*
D03*
D55*
X1734058Y389890D02*
D03*
X1449578Y755650D02*
D03*
X1729486Y753872D02*
D03*
X1453642Y385572D02*
D03*
D56*
X1545590Y475996D02*
D03*
X1581150D02*
D03*
X1636014D02*
D03*
X1722120Y458978D02*
D03*
D57*
X1521968Y560578D02*
D03*
X1530096D02*
D03*
X1538224Y560832D02*
D03*
X1545590Y561086D02*
D03*
X1620146Y582302D02*
D03*
X1686306Y550418D02*
D03*
X1619250Y594614D02*
D03*
X1580642Y562864D02*
D03*
X1578864Y574294D02*
D03*
X1503906Y522958D02*
D03*
X1435608Y660908D02*
D03*
X1435354Y669798D02*
D03*
X1459992Y467360D02*
D03*
X1627886Y367792D02*
D03*
X1519428Y371856D02*
D03*
X1552956Y374904D02*
D03*
X1531366Y402590D02*
D03*
X1543304Y402336D02*
D03*
X1564132Y394462D02*
D03*
X1534922Y717550D02*
D03*
X1682750Y510540D02*
D03*
X1553210Y720598D02*
D03*
X1641094Y730758D02*
D03*
X1621282Y730504D02*
D03*
X1590802Y682244D02*
D03*
X1686814Y647954D02*
D03*
X1504188Y574294D02*
D03*
X1617218Y392176D02*
D03*
X1625346Y390398D02*
D03*
D58*
X1579674Y601449D02*
D03*
X1683004Y532638D02*
D03*
X1689862Y515112D02*
D03*
X1582674Y625348D02*
D03*
X1581150Y619760D02*
D03*
X1593195Y663047D02*
D03*
X1589278Y659130D02*
D03*
X1682750Y525732D02*
D03*
Y520192D02*
D03*
X1583591Y605366D02*
D03*
X1672844Y664718D02*
D03*
X1670050Y659638D02*
D03*
D59*
X1544574Y729742D02*
D03*
X1643126Y782066D02*
D03*
M02*
