G04*
G04 #@! TF.GenerationSoftware,Altium Limited,Altium Designer,23.4.1 (23)*
G04*
G04 Layer_Color=8388736*
%FSLAX44Y44*%
%MOMM*%
G71*
G04*
G04 #@! TF.SameCoordinates,D1F9F651-E120-4EB1-B4AC-D2E1D016148F*
G04*
G04*
G04 #@! TF.FilePolarity,Negative*
G04*
G01*
G75*
%ADD15R,1.2000X1.2000*%
%ADD16R,2.7000X1.4000*%
%ADD17R,0.7000X2.0000*%
%ADD18R,1.5000X2.6000*%
%ADD19R,1.0000X2.6000*%
%ADD21R,1.3000X1.1000*%
%ADD27R,1.3061X1.0582*%
%ADD28R,0.5500X1.5000*%
%ADD29R,1.5000X0.5500*%
%ADD31R,0.8000X0.8000*%
%ADD32R,0.8121X0.7581*%
%ADD33R,0.7581X0.8121*%
%ADD34R,1.0582X1.3061*%
%ADD35R,1.3532X0.5032*%
%ADD36R,0.6032X1.5532*%
%ADD37R,2.3032X1.8032*%
%ADD38R,2.0032X2.1032*%
%ADD39R,2.1032X2.1032*%
%ADD40R,1.3532X0.8032*%
%ADD41R,1.6532X1.4032*%
G04:AMPARAMS|DCode=42|XSize=2.0032mm|YSize=1.2032mm|CornerRadius=0.3516mm|HoleSize=0mm|Usage=FLASHONLY|Rotation=180.000|XOffset=0mm|YOffset=0mm|HoleType=Round|Shape=RoundedRectangle|*
%AMROUNDEDRECTD42*
21,1,2.0032,0.5000,0,0,180.0*
21,1,1.3000,1.2032,0,0,180.0*
1,1,0.7032,-0.6500,0.2500*
1,1,0.7032,0.6500,0.2500*
1,1,0.7032,0.6500,-0.2500*
1,1,0.7032,-0.6500,-0.2500*
%
%ADD42ROUNDEDRECTD42*%
%ADD43O,2.3032X1.2032*%
%ADD44C,0.8532*%
%ADD45C,3.7032*%
%ADD46C,0.7032*%
%ADD47C,0.6032*%
%ADD48C,0.5032*%
%ADD49C,0.8032*%
D15*
X1624570Y488680D02*
D03*
D16*
X1545070Y487680D02*
D03*
X1594070D02*
D03*
D17*
X1608070Y360680D02*
D03*
X1597070D02*
D03*
X1586070D02*
D03*
X1575070D02*
D03*
X1564070D02*
D03*
X1553070D02*
D03*
X1542070D02*
D03*
X1531070D02*
D03*
D18*
X1643570Y365680D02*
D03*
D19*
X1510070D02*
D03*
D21*
X1457112Y548000D02*
D03*
X1478112D02*
D03*
Y531500D02*
D03*
X1457112D02*
D03*
D27*
X1475373Y484378D02*
D03*
X1459851D02*
D03*
X1670276Y437388D02*
D03*
X1685798D02*
D03*
X1632571Y654050D02*
D03*
X1648093D02*
D03*
D28*
X1466220Y703430D02*
D03*
X1474220D02*
D03*
X1482220D02*
D03*
X1490220D02*
D03*
X1498220D02*
D03*
X1506220D02*
D03*
X1514220D02*
D03*
X1522220D02*
D03*
X1530220D02*
D03*
X1538220D02*
D03*
X1546220D02*
D03*
Y589430D02*
D03*
X1538220D02*
D03*
X1530220D02*
D03*
X1522220D02*
D03*
X1514220D02*
D03*
X1506220D02*
D03*
X1498220D02*
D03*
X1490220D02*
D03*
X1482220D02*
D03*
X1474220D02*
D03*
X1466220D02*
D03*
D29*
X1563220Y686430D02*
D03*
Y678430D02*
D03*
Y670430D02*
D03*
Y662430D02*
D03*
Y654430D02*
D03*
Y646430D02*
D03*
Y638430D02*
D03*
Y630430D02*
D03*
Y622430D02*
D03*
Y614430D02*
D03*
Y606430D02*
D03*
X1449220D02*
D03*
Y614430D02*
D03*
Y622430D02*
D03*
Y630430D02*
D03*
Y638430D02*
D03*
Y646430D02*
D03*
Y654430D02*
D03*
Y662430D02*
D03*
Y670430D02*
D03*
Y678430D02*
D03*
Y686430D02*
D03*
D31*
X1593596Y721736D02*
D03*
Y705236D02*
D03*
D32*
X1667868Y412698D02*
D03*
Y400158D02*
D03*
X1455428Y432320D02*
D03*
Y419780D02*
D03*
X1475748Y432400D02*
D03*
Y419860D02*
D03*
X1670050Y675720D02*
D03*
Y688260D02*
D03*
X1648460Y675720D02*
D03*
Y688260D02*
D03*
X1628140Y675720D02*
D03*
Y688260D02*
D03*
X1688188Y412778D02*
D03*
Y400238D02*
D03*
D33*
X1633300Y527050D02*
D03*
X1645840D02*
D03*
X1633300Y547370D02*
D03*
X1645840D02*
D03*
X1633300Y567690D02*
D03*
X1645840D02*
D03*
X1633220Y588010D02*
D03*
X1645760D02*
D03*
X1633300Y608330D02*
D03*
X1645840D02*
D03*
X1559720Y548640D02*
D03*
X1572260D02*
D03*
X1572180Y528320D02*
D03*
X1559640D02*
D03*
X1643808Y766826D02*
D03*
X1631268D02*
D03*
X1643808Y747268D02*
D03*
X1631268D02*
D03*
X1709500Y437388D02*
D03*
X1722040D02*
D03*
D34*
X1605280Y604520D02*
D03*
Y588998D02*
D03*
X1539240Y522958D02*
D03*
Y538480D02*
D03*
X1664970Y749667D02*
D03*
Y765189D02*
D03*
D35*
X1704288Y655868D02*
D03*
X1704542Y525486D02*
D03*
Y520486D02*
D03*
Y530486D02*
D03*
Y535486D02*
D03*
Y540486D02*
D03*
Y515486D02*
D03*
Y510486D02*
D03*
Y505486D02*
D03*
X1704288Y660868D02*
D03*
Y665868D02*
D03*
Y670868D02*
D03*
Y675868D02*
D03*
Y650868D02*
D03*
Y645868D02*
D03*
Y640868D02*
D03*
D36*
X1526094Y748204D02*
D03*
X1532594D02*
D03*
X1519594D02*
D03*
X1539094D02*
D03*
X1513094D02*
D03*
D37*
X1557094Y749454D02*
D03*
X1495094D02*
D03*
D38*
X1564094Y774954D02*
D03*
X1488094D02*
D03*
D39*
X1538094D02*
D03*
X1514094D02*
D03*
D40*
X1704542Y490986D02*
D03*
Y554986D02*
D03*
Y498986D02*
D03*
Y546986D02*
D03*
X1704288Y626368D02*
D03*
Y690368D02*
D03*
Y634368D02*
D03*
Y682368D02*
D03*
D41*
X1606042Y554322D02*
D03*
Y534322D02*
D03*
D42*
X1752092Y479786D02*
D03*
Y566186D02*
D03*
X1751838Y615168D02*
D03*
Y701568D02*
D03*
D43*
X1710292Y479786D02*
D03*
Y566186D02*
D03*
X1710038Y615168D02*
D03*
Y701568D02*
D03*
D44*
X1715292Y551886D02*
D03*
Y494086D02*
D03*
X1715038Y687268D02*
D03*
Y629468D02*
D03*
D45*
X1734058Y389890D02*
D03*
X1449578Y755650D02*
D03*
X1729486Y753872D02*
D03*
X1453642Y385572D02*
D03*
D46*
X1545590Y475996D02*
D03*
X1581150D02*
D03*
X1636014D02*
D03*
X1722120Y458978D02*
D03*
D47*
X1521968Y560578D02*
D03*
X1530096D02*
D03*
X1538224Y560832D02*
D03*
X1545590Y561086D02*
D03*
X1620146Y582302D02*
D03*
X1686306Y550418D02*
D03*
X1619250Y594614D02*
D03*
X1580642Y562864D02*
D03*
X1578864Y574294D02*
D03*
X1503906Y522958D02*
D03*
X1435608Y660908D02*
D03*
X1435354Y669798D02*
D03*
X1459992Y467360D02*
D03*
X1627886Y367792D02*
D03*
X1519428Y371856D02*
D03*
X1552956Y374904D02*
D03*
X1531366Y402590D02*
D03*
X1543304Y402336D02*
D03*
X1564132Y394462D02*
D03*
X1534922Y717550D02*
D03*
X1682750Y510540D02*
D03*
X1553210Y720598D02*
D03*
X1641094Y730758D02*
D03*
X1621282Y730504D02*
D03*
X1590802Y682244D02*
D03*
X1686814Y647954D02*
D03*
X1504188Y574294D02*
D03*
X1617218Y392176D02*
D03*
X1625346Y390398D02*
D03*
D48*
X1579674Y601449D02*
D03*
X1683004Y532638D02*
D03*
X1689862Y515112D02*
D03*
X1582674Y625348D02*
D03*
X1581150Y619760D02*
D03*
X1593195Y663047D02*
D03*
X1589278Y659130D02*
D03*
X1682750Y525732D02*
D03*
Y520192D02*
D03*
X1583591Y605366D02*
D03*
X1672844Y664718D02*
D03*
X1670050Y659638D02*
D03*
D49*
X1544574Y729742D02*
D03*
X1643126Y782066D02*
D03*
M02*
