G04*
G04 #@! TF.GenerationSoftware,Altium Limited,Altium Designer,23.4.1 (23)*
G04*
G04 Layer_Physical_Order=1*
G04 Layer_Color=255*
%FSLAX44Y44*%
%MOMM*%
G71*
G04*
G04 #@! TF.SameCoordinates,D1F9F651-E120-4EB1-B4AC-D2E1D016148F*
G04*
G04*
G04 #@! TF.FilePolarity,Positive*
G04*
G01*
G75*
%ADD10C,0.2500*%
%ADD11C,0.3000*%
%ADD12C,0.2000*%
%ADD14C,0.2540*%
%ADD15R,1.2000X1.2000*%
%ADD16R,2.7000X1.4000*%
%ADD17R,0.7000X2.0000*%
%ADD18R,1.5000X2.6000*%
%ADD19R,1.0000X2.6000*%
%ADD20R,1.1500X0.3000*%
%ADD21R,1.3000X1.1000*%
%ADD22R,0.4000X1.3500*%
%ADD23R,2.1000X1.6000*%
%ADD24R,1.8000X1.9000*%
%ADD25R,1.9000X1.9000*%
%ADD26R,1.1500X0.6000*%
%ADD27R,1.3061X1.0582*%
%ADD28R,0.5500X1.5000*%
%ADD29R,1.5000X0.5500*%
%ADD30R,1.4500X1.2000*%
%ADD31R,0.8000X0.8000*%
%ADD32R,0.8121X0.7581*%
%ADD33R,0.7581X0.8121*%
%ADD34R,1.0582X1.3061*%
%ADD50C,0.5000*%
%ADD51C,0.4000*%
G04:AMPARAMS|DCode=52|XSize=1.8mm|YSize=1mm|CornerRadius=0.25mm|HoleSize=0mm|Usage=FLASHONLY|Rotation=180.000|XOffset=0mm|YOffset=0mm|HoleType=Round|Shape=RoundedRectangle|*
%AMROUNDEDRECTD52*
21,1,1.8000,0.5000,0,0,180.0*
21,1,1.3000,1.0000,0,0,180.0*
1,1,0.5000,-0.6500,0.2500*
1,1,0.5000,0.6500,0.2500*
1,1,0.5000,0.6500,-0.2500*
1,1,0.5000,-0.6500,-0.2500*
%
%ADD52ROUNDEDRECTD52*%
%ADD53O,2.1000X1.0000*%
%ADD54C,0.6500*%
%ADD55C,3.5000*%
%ADD56C,0.5000*%
%ADD57C,0.4000*%
%ADD58C,0.3000*%
%ADD59C,0.6000*%
G36*
X1551940Y786638D02*
X1552554D01*
Y776224D01*
X1575634D01*
Y786638D01*
X1583436D01*
Y731774D01*
X1579118Y727456D01*
X1544574Y737616D01*
Y738914D01*
X1555824D01*
Y749454D01*
Y759994D01*
X1544574D01*
Y762914D01*
X1550134D01*
Y773684D01*
X1538094D01*
Y776224D01*
X1550134D01*
Y785848D01*
X1551432Y787146D01*
X1551940Y786638D01*
D02*
G37*
G36*
X1768602Y561340D02*
X1766570Y559308D01*
X1763224D01*
X1762577Y560578D01*
X1763340Y561720D01*
X1763731Y563686D01*
Y564916D01*
X1752092D01*
Y566186D01*
D01*
Y564916D01*
X1740453D01*
Y563686D01*
X1740844Y561720D01*
X1741607Y560578D01*
X1740961Y559308D01*
X1721301D01*
X1720869Y560578D01*
X1721170Y560808D01*
X1722378Y562383D01*
X1723138Y564218D01*
X1723230Y564916D01*
X1710292D01*
Y566186D01*
D01*
Y564916D01*
X1697354D01*
X1697446Y564218D01*
X1698206Y562383D01*
X1698657Y561796D01*
X1698030Y560526D01*
X1696252D01*
Y559308D01*
X1694434D01*
X1694182Y620025D01*
X1695266Y620968D01*
X1695998Y620828D01*
Y620828D01*
X1697776D01*
X1698403Y619558D01*
X1697952Y618970D01*
X1697192Y617136D01*
X1697100Y616438D01*
X1710038D01*
X1722976D01*
X1722884Y617136D01*
X1722124Y618970D01*
X1720934Y620522D01*
X1720949Y620635D01*
X1721378Y621792D01*
X1740505D01*
X1741183Y620522D01*
X1740590Y619635D01*
X1740199Y617668D01*
Y616438D01*
X1751838D01*
X1763477D01*
Y617668D01*
X1763086Y619635D01*
X1762493Y620522D01*
X1763171Y621792D01*
X1768602D01*
Y561340D01*
D02*
G37*
%LPC*%
G36*
X1575634Y773684D02*
X1565364D01*
Y762914D01*
X1575634D01*
Y773684D01*
D02*
G37*
G36*
X1562824D02*
X1552554D01*
Y762914D01*
X1562824D01*
Y773684D01*
D02*
G37*
G36*
X1570134Y759994D02*
X1558364D01*
Y750724D01*
X1570134D01*
Y759994D01*
D02*
G37*
G36*
Y748184D02*
X1558364D01*
Y738914D01*
X1570134D01*
Y748184D01*
D02*
G37*
G36*
X1722976Y613898D02*
X1711308D01*
Y607563D01*
X1715538D01*
X1717506Y607822D01*
X1719341Y608582D01*
X1720916Y609790D01*
X1722124Y611366D01*
X1722884Y613200D01*
X1722976Y613898D01*
D02*
G37*
G36*
X1708768D02*
X1697100D01*
X1697192Y613200D01*
X1697952Y611366D01*
X1699160Y609790D01*
X1700735Y608582D01*
X1702570Y607822D01*
X1704538Y607563D01*
X1708768D01*
Y613898D01*
D02*
G37*
G36*
X1763477D02*
X1753108D01*
Y607529D01*
X1758338D01*
X1760305Y607920D01*
X1761972Y609034D01*
X1763086Y610701D01*
X1763477Y612668D01*
Y613898D01*
D02*
G37*
G36*
X1750568D02*
X1740199D01*
Y612668D01*
X1740590Y610701D01*
X1741704Y609034D01*
X1743371Y607920D01*
X1745338Y607529D01*
X1750568D01*
Y613898D01*
D02*
G37*
G36*
X1758592Y573825D02*
X1753362D01*
Y567456D01*
X1763731D01*
Y568686D01*
X1763340Y570653D01*
X1762226Y572320D01*
X1760558Y573433D01*
X1758592Y573825D01*
D02*
G37*
G36*
X1715792Y573791D02*
X1711562D01*
Y567456D01*
X1723230D01*
X1723138Y568154D01*
X1722378Y569989D01*
X1721170Y571564D01*
X1719595Y572772D01*
X1717760Y573532D01*
X1715792Y573791D01*
D02*
G37*
G36*
X1750822Y573825D02*
X1745592D01*
X1743625Y573433D01*
X1741958Y572320D01*
X1740844Y570653D01*
X1740453Y568686D01*
Y567456D01*
X1750822D01*
Y573825D01*
D02*
G37*
G36*
X1709022Y573791D02*
X1704792D01*
X1702824Y573532D01*
X1700990Y572772D01*
X1699414Y571564D01*
X1698206Y569989D01*
X1697446Y568154D01*
X1697354Y567456D01*
X1709022D01*
Y573791D01*
D02*
G37*
%LPD*%
D10*
X1563220Y670430D02*
X1564450Y671660D01*
X1576748D02*
X1589028Y659380D01*
X1563220Y678430D02*
X1564450Y677200D01*
X1589028Y659380D02*
X1589278Y659130D01*
X1589028Y659380D02*
Y659380D01*
X1564450Y671660D02*
X1576748D01*
X1564450Y677200D02*
X1579043D01*
X1593195Y663047D01*
D11*
X1522094Y589304D02*
X1522220Y589430D01*
X1522094Y560704D02*
Y589304D01*
X1521968Y560578D02*
X1522094Y560704D01*
X1530158Y560640D02*
Y589368D01*
X1530220Y589430D01*
X1530096Y560578D02*
X1530158Y560640D01*
X1538220Y589430D02*
X1538222Y589428D01*
Y560834D02*
Y589428D01*
Y560834D02*
X1538224Y560832D01*
X1546286Y562053D02*
Y589364D01*
X1545590Y561357D02*
X1546286Y562053D01*
X1545590Y561086D02*
Y561357D01*
X1575757Y613200D02*
X1583591Y605366D01*
X1564450Y613200D02*
X1575757D01*
X1573463Y607660D02*
X1579674Y601449D01*
X1564450Y607660D02*
X1573463D01*
X1563220Y606430D02*
X1564450Y607660D01*
X1563220Y614430D02*
X1564450Y613200D01*
X1690236Y515486D02*
X1704542D01*
X1689862Y515112D02*
X1690236Y515486D01*
X1685156Y530486D02*
X1704542D01*
X1683004Y532638D02*
X1685156Y530486D01*
X1577592Y630430D02*
X1582674Y625348D01*
X1563220Y630430D02*
X1577592D01*
X1563220Y622430D02*
X1578480D01*
X1581150Y619760D01*
X1696238Y540486D02*
X1704542D01*
X1686497Y550227D02*
X1696238Y540486D01*
X1546220Y589430D02*
X1546286Y589364D01*
X1578864Y574294D02*
Y577596D01*
X1435354Y669798D02*
X1435625D01*
X1436221Y670394D01*
X1449184D01*
X1432814Y593298D02*
Y625369D01*
X1448565Y629775D02*
X1449220Y630430D01*
X1437220Y629775D02*
X1448565D01*
X1432814Y625369D02*
X1437220Y629775D01*
X1477112Y548000D02*
X1478112D01*
X1473112Y552000D02*
X1477112Y548000D01*
X1473112Y552000D02*
Y553000D01*
X1432814Y593298D02*
X1473112Y553000D01*
X1531070Y360680D02*
X1531218Y360828D01*
Y402442D01*
X1531366Y402590D01*
X1543113Y402145D02*
X1543304Y402336D01*
X1542070Y360680D02*
X1543113Y361723D01*
Y402145D01*
X1564070Y360680D02*
X1564101Y360711D01*
Y394431D01*
X1564132Y394462D01*
X1506220Y589430D02*
Y618238D01*
X1471550Y652908D02*
X1506220Y618238D01*
X1471550Y652908D02*
Y654430D01*
X1538220Y703430D02*
Y715331D01*
X1534922Y717550D02*
X1535113Y717359D01*
X1536192D02*
X1538220Y715331D01*
X1535113Y717359D02*
X1536192D01*
X1682804Y510486D02*
X1704542D01*
X1682750Y510540D02*
X1682804Y510486D01*
X1704418Y499110D02*
X1705688Y500380D01*
X1716786D01*
X1724660Y508254D02*
Y538226D01*
X1716786Y500380D02*
X1724660Y508254D01*
X1704542Y546986D02*
X1705392Y546136D01*
X1716750D01*
X1724660Y538226D01*
X1546220Y703430D02*
Y708180D01*
X1553019Y714979D01*
Y720407D01*
X1553210Y720598D01*
X1704288Y682368D02*
X1705138Y681518D01*
X1716750D01*
X1721612Y676656D01*
Y642874D02*
Y676656D01*
X1714538Y635800D02*
X1721612Y642874D01*
X1704288Y634368D02*
X1705720Y635800D01*
X1714538D01*
X1590531Y682244D02*
X1590802D01*
X1586345Y686430D02*
X1590531Y682244D01*
X1563220Y686430D02*
X1586345D01*
X1590040Y637794D02*
X1599184Y646938D01*
X1593596Y705236D02*
X1599184Y699648D01*
Y646938D02*
Y699648D01*
X1688900Y645868D02*
X1704288D01*
X1686814Y647954D02*
X1688900Y645868D01*
X1506220Y576326D02*
Y589430D01*
X1504188Y574294D02*
X1506220Y576326D01*
X1449184Y670394D02*
X1449220Y670430D01*
X1590040Y588772D02*
Y637794D01*
X1578864Y577596D02*
X1590040Y588772D01*
X1605280Y587759D02*
Y588998D01*
X1601489Y583968D02*
X1605280Y587759D01*
X1600250Y583968D02*
X1601489D01*
X1590576Y574294D02*
X1600250Y583968D01*
X1578864Y574294D02*
X1590576D01*
X1687830Y499110D02*
X1704418D01*
X1685544Y471424D02*
Y496824D01*
X1687830Y499110D01*
X1709500Y437388D02*
Y447468D01*
X1685544Y471424D02*
X1709500Y447468D01*
X1610339Y383540D02*
X1618488D01*
X1608070Y360680D02*
Y381271D01*
X1610339Y383540D01*
X1618488D02*
X1625346Y390398D01*
X1596644Y361106D02*
X1597070Y360680D01*
X1596644Y361106D02*
Y388874D01*
X1599946Y392176D01*
X1617218D01*
X1648460Y654417D02*
Y675720D01*
X1684144Y682368D02*
X1704288D01*
X1677496Y675720D02*
X1684144Y682368D01*
X1670050Y675720D02*
X1677496D01*
X1648460D02*
X1670050D01*
X1648093Y654050D02*
X1648460Y654417D01*
X1563220Y638430D02*
X1563856Y637794D01*
X1590040D01*
X1488094Y755954D02*
X1488398Y755650D01*
X1488898D01*
X1449578D02*
X1488398D01*
X1488898D02*
X1495094Y749454D01*
X1488094Y755954D02*
Y774954D01*
X1496344Y748204D02*
X1513094D01*
X1495094Y749454D02*
X1496344Y748204D01*
X1513078Y748188D02*
X1513094Y748204D01*
X1513078Y730504D02*
Y748188D01*
X1506220Y703430D02*
Y723646D01*
X1513078Y730504D01*
X1528990Y724730D02*
X1532114Y727854D01*
Y747724D01*
X1528990Y704660D02*
X1530220Y703430D01*
X1528990Y704660D02*
Y724730D01*
X1526574Y730149D02*
Y747724D01*
X1526094Y748204D02*
X1526574Y747724D01*
X1532114D02*
X1532594Y748204D01*
X1523450Y704660D02*
Y727025D01*
X1526574Y730149D01*
X1522220Y703430D02*
X1523450Y704660D01*
X1606268Y588010D02*
X1633220D01*
X1633260Y567730D02*
X1633300Y567690D01*
X1633260Y567730D02*
Y587970D01*
X1633220Y588010D02*
X1633260Y587970D01*
X1633300Y547370D02*
Y567690D01*
Y527050D02*
Y547370D01*
X1667868Y412698D02*
Y434980D01*
X1670276Y437388D01*
X1685798D02*
X1709500D01*
X1688188Y412778D02*
Y434998D01*
D12*
X1683021Y520192D02*
X1683521Y520692D01*
X1693909Y525232D02*
X1693932Y525256D01*
X1682750Y525732D02*
X1683021D01*
X1693932Y525256D02*
X1704312D01*
X1695789Y520692D02*
X1695813Y520716D01*
X1683521Y520692D02*
X1695789D01*
X1682750Y520192D02*
X1683021D01*
X1683521Y525232D02*
X1693909D01*
X1683021Y525732D02*
X1683521Y525232D01*
X1704312Y525256D02*
X1704542Y525486D01*
X1695813Y520716D02*
X1704312D01*
X1704542Y520486D01*
X1670241Y659447D02*
X1670981D01*
X1704058Y656098D02*
X1704288Y655868D01*
X1670981Y659447D02*
X1674329Y656098D01*
X1704058D01*
X1670050Y659638D02*
X1670241Y659447D01*
X1676210Y660638D02*
X1704058D01*
X1673035Y663812D02*
X1676210Y660638D01*
X1673035Y663812D02*
Y664527D01*
X1672844Y664718D02*
X1673035Y664527D01*
X1704058Y660638D02*
X1704288Y660868D01*
D14*
X1685798Y437388D02*
X1688188Y434998D01*
D15*
X1624570Y488680D02*
D03*
D16*
X1545070Y487680D02*
D03*
X1594070D02*
D03*
D17*
X1608070Y360680D02*
D03*
X1597070D02*
D03*
X1586070D02*
D03*
X1575070D02*
D03*
X1564070D02*
D03*
X1553070D02*
D03*
X1542070D02*
D03*
X1531070D02*
D03*
D18*
X1643570Y365680D02*
D03*
D19*
X1510070D02*
D03*
D20*
X1704288Y655868D02*
D03*
X1704542Y525486D02*
D03*
Y520486D02*
D03*
Y530486D02*
D03*
Y535486D02*
D03*
Y540486D02*
D03*
Y515486D02*
D03*
Y510486D02*
D03*
Y505486D02*
D03*
X1704288Y660868D02*
D03*
Y665868D02*
D03*
Y670868D02*
D03*
Y675868D02*
D03*
Y650868D02*
D03*
Y645868D02*
D03*
Y640868D02*
D03*
D21*
X1457112Y548000D02*
D03*
X1478112D02*
D03*
Y531500D02*
D03*
X1457112D02*
D03*
D22*
X1526094Y748204D02*
D03*
X1532594D02*
D03*
X1519594D02*
D03*
X1539094D02*
D03*
X1513094D02*
D03*
D23*
X1557094Y749454D02*
D03*
X1495094D02*
D03*
D24*
X1564094Y774954D02*
D03*
X1488094D02*
D03*
D25*
X1538094D02*
D03*
X1514094D02*
D03*
D26*
X1704542Y490986D02*
D03*
Y554986D02*
D03*
Y498986D02*
D03*
Y546986D02*
D03*
X1704288Y626368D02*
D03*
Y690368D02*
D03*
Y634368D02*
D03*
Y682368D02*
D03*
D27*
X1475373Y484378D02*
D03*
X1459851D02*
D03*
X1670276Y437388D02*
D03*
X1685798D02*
D03*
X1632571Y654050D02*
D03*
X1648093D02*
D03*
D28*
X1466220Y703430D02*
D03*
X1474220D02*
D03*
X1482220D02*
D03*
X1490220D02*
D03*
X1498220D02*
D03*
X1506220D02*
D03*
X1514220D02*
D03*
X1522220D02*
D03*
X1530220D02*
D03*
X1538220D02*
D03*
X1546220D02*
D03*
Y589430D02*
D03*
X1538220D02*
D03*
X1530220D02*
D03*
X1522220D02*
D03*
X1514220D02*
D03*
X1506220D02*
D03*
X1498220D02*
D03*
X1490220D02*
D03*
X1482220D02*
D03*
X1474220D02*
D03*
X1466220D02*
D03*
D29*
X1563220Y686430D02*
D03*
Y678430D02*
D03*
Y670430D02*
D03*
Y662430D02*
D03*
Y654430D02*
D03*
Y646430D02*
D03*
Y638430D02*
D03*
Y630430D02*
D03*
Y622430D02*
D03*
Y614430D02*
D03*
Y606430D02*
D03*
X1449220D02*
D03*
Y614430D02*
D03*
Y622430D02*
D03*
Y630430D02*
D03*
Y638430D02*
D03*
Y646430D02*
D03*
Y654430D02*
D03*
Y662430D02*
D03*
Y670430D02*
D03*
Y678430D02*
D03*
Y686430D02*
D03*
D30*
X1606042Y554322D02*
D03*
Y534322D02*
D03*
D31*
X1593596Y721736D02*
D03*
Y705236D02*
D03*
D32*
X1667868Y412698D02*
D03*
Y400158D02*
D03*
X1455428Y432320D02*
D03*
Y419780D02*
D03*
X1475748Y432400D02*
D03*
Y419860D02*
D03*
X1670050Y675720D02*
D03*
Y688260D02*
D03*
X1648460Y675720D02*
D03*
Y688260D02*
D03*
X1628140Y675720D02*
D03*
Y688260D02*
D03*
X1688188Y412778D02*
D03*
Y400238D02*
D03*
D33*
X1633300Y527050D02*
D03*
X1645840D02*
D03*
X1633300Y547370D02*
D03*
X1645840D02*
D03*
X1633300Y567690D02*
D03*
X1645840D02*
D03*
X1633220Y588010D02*
D03*
X1645760D02*
D03*
X1633300Y608330D02*
D03*
X1645840D02*
D03*
X1559720Y548640D02*
D03*
X1572260D02*
D03*
X1572180Y528320D02*
D03*
X1559640D02*
D03*
X1643808Y766826D02*
D03*
X1631268D02*
D03*
X1643808Y747268D02*
D03*
X1631268D02*
D03*
X1709500Y437388D02*
D03*
X1722040D02*
D03*
D34*
X1605280Y604520D02*
D03*
Y588998D02*
D03*
X1539240Y522958D02*
D03*
Y538480D02*
D03*
X1664970Y749667D02*
D03*
Y765189D02*
D03*
D50*
X1738630Y394462D02*
Y466324D01*
X1752092Y479786D01*
X1709848Y365680D02*
X1738630Y394462D01*
X1714853Y479786D02*
X1752092D01*
X1624570Y488680D02*
X1636014Y477236D01*
Y475996D02*
Y477236D01*
X1545070Y487680D02*
X1545590Y487160D01*
Y475996D02*
Y487160D01*
X1581150Y475996D02*
X1636014D01*
X1722040Y437388D02*
Y472599D01*
X1514220Y553720D02*
Y589430D01*
Y537336D02*
Y553720D01*
X1572243Y548623D02*
Y548927D01*
X1551531Y556201D02*
X1564969D01*
X1544074Y553300D02*
X1548630D01*
X1514220Y553720D02*
X1543654D01*
X1548630Y553300D02*
X1551531Y556201D01*
X1564969D02*
X1572243Y548927D01*
X1543654Y553720D02*
X1544074Y553300D01*
X1629998Y365680D02*
X1643570D01*
X1627886Y367792D02*
X1629998Y365680D01*
X1512570Y373634D02*
X1517650D01*
X1519428Y371856D01*
X1510070Y365680D02*
Y371134D01*
X1512570Y373634D01*
X1552956Y360794D02*
X1553070Y360680D01*
X1552956Y360794D02*
Y374904D01*
X1752092Y479786D02*
Y566186D01*
X1751838Y615168D02*
Y701568D01*
X1704288Y626368D02*
X1706663D01*
X1707163Y625868D01*
Y617478D02*
Y625868D01*
Y617478D02*
X1709473Y615168D01*
X1710038D01*
X1704542Y554986D02*
X1706917D01*
X1707417Y555486D01*
Y563876D01*
X1709727Y566186D01*
X1710292D01*
X1478112Y531500D02*
X1508384D01*
X1514220Y537336D01*
X1709727Y479786D02*
X1710292D01*
X1707417Y482096D02*
X1709727Y479786D01*
X1707417Y482096D02*
Y490486D01*
X1706917Y490986D02*
X1707417Y490486D01*
X1704542Y490986D02*
X1706917D01*
X1473534Y365680D02*
X1510070D01*
X1453642Y385572D02*
X1473534Y365680D01*
X1643570D02*
X1709848D01*
X1714853Y479786D02*
X1722040Y472599D01*
X1710292Y479786D02*
X1714853D01*
X1688188Y400238D02*
X1710878D01*
X1722040Y411400D02*
Y437388D01*
X1710878Y400238D02*
X1722040Y411400D01*
X1688148Y400198D02*
X1688188Y400238D01*
X1667908Y400198D02*
X1688148D01*
X1667868Y400158D02*
X1667908Y400198D01*
D51*
X1547321Y547800D02*
X1550908D01*
X1539240Y539719D02*
X1547321Y547800D01*
X1550908D02*
X1551748Y548640D01*
X1559720D01*
X1620146Y572944D02*
Y582302D01*
X1619504Y572302D02*
X1620146Y572944D01*
X1619504Y567784D02*
Y572302D01*
X1633300Y608060D02*
Y653321D01*
X1608571Y599990D02*
X1613874D01*
X1605280Y603281D02*
Y604520D01*
X1619250Y594614D02*
X1629156Y604520D01*
X1613874Y599990D02*
X1619250Y594614D01*
X1629156Y604520D02*
X1629760D01*
X1605280Y603281D02*
X1608571Y599990D01*
X1629760Y604520D02*
X1633300Y608060D01*
X1592129Y554322D02*
X1606042D01*
X1589184D02*
X1592129D01*
X1580642Y562864D02*
X1589184Y554322D01*
X1606042D02*
X1607292D01*
X1611292Y558322D01*
Y559572D01*
X1619504Y567784D01*
X1435608Y660908D02*
X1436380Y661680D01*
X1448470D01*
X1449220Y662430D01*
X1459851Y436743D02*
Y484378D01*
X1431556Y647180D02*
X1448470D01*
X1427480Y651256D02*
Y733552D01*
Y651256D02*
X1431556Y647180D01*
X1449220Y654430D02*
X1471550D01*
Y652908D02*
X1513470Y694828D01*
Y702680D01*
X1514220Y703430D01*
X1539094Y735454D02*
Y748204D01*
Y735454D02*
X1544574Y729974D01*
Y729742D02*
Y729974D01*
X1427480Y733552D02*
X1449578Y755650D01*
X1448470Y647180D02*
X1449220Y646430D01*
X1643808Y733472D02*
Y747268D01*
X1641094Y730758D02*
X1643808Y733472D01*
Y747268D02*
X1662571D01*
X1664970Y749667D01*
X1608582Y680466D02*
Y717804D01*
X1621282Y730504D01*
X1613328Y675720D02*
X1628140D01*
X1608582Y680466D02*
X1613328Y675720D01*
X1569974Y710438D02*
Y727710D01*
X1575054Y732790D01*
X1543304Y652780D02*
Y683768D01*
X1569974Y710438D01*
X1549654Y646430D02*
X1563220D01*
X1543304Y652780D02*
X1549654Y646430D01*
X1710038Y701568D02*
X1751838D01*
X1513897Y432816D02*
X1550060D01*
X1575070Y407806D01*
Y360680D02*
Y407806D01*
X1498346Y448367D02*
X1513897Y432816D01*
X1498346Y448367D02*
Y496316D01*
X1502410Y500380D01*
X1536446D02*
X1550924Y514858D01*
X1502410Y500380D02*
X1536446D01*
X1550924Y514858D02*
Y539574D01*
X1559720Y548370D02*
Y548640D01*
X1550924Y539574D02*
X1559720Y548370D01*
X1459738Y484491D02*
X1459851Y484378D01*
X1459738Y501650D02*
X1463802Y505714D01*
X1459738Y484491D02*
Y501650D01*
X1463802Y505714D02*
X1486662D01*
X1503906Y522958D02*
X1539240D01*
X1486662Y505714D02*
X1503906Y522958D01*
X1539240Y538480D02*
Y539719D01*
X1642872Y439731D02*
Y448564D01*
X1645215Y437388D02*
X1670276D01*
X1642872Y439731D02*
X1645215Y437388D01*
X1621536Y469900D02*
X1642872Y448564D01*
X1575562Y469900D02*
X1621536D01*
X1572180Y473282D02*
X1575562Y469900D01*
X1572180Y473282D02*
Y528320D01*
X1628410Y675720D02*
X1632571Y671559D01*
X1628140Y675720D02*
X1628410D01*
X1632571Y654050D02*
Y671559D01*
X1643300Y767572D02*
X1662587D01*
X1643300D02*
X1643467Y767739D01*
Y781725D01*
X1643126Y782066D02*
X1643467Y781725D01*
X1578864Y766826D02*
X1631268D01*
X1578356Y767334D02*
X1578864Y766826D01*
X1579748Y735584D02*
X1593596Y721736D01*
X1577086Y735584D02*
X1579748D01*
X1751838Y701568D02*
Y731520D01*
X1729486Y753872D02*
X1751838Y731520D01*
X1589786Y546196D02*
Y551979D01*
X1592129Y554322D01*
X1572180Y528320D02*
Y528590D01*
X1589786Y546196D01*
X1488094Y774954D02*
X1514094D01*
X1538094D01*
X1564094D01*
X1628140Y688260D02*
X1648460D01*
X1631268Y698574D02*
Y746998D01*
X1628140Y688260D02*
X1628401Y688521D01*
Y695707D02*
X1631268Y698574D01*
X1628401Y688521D02*
Y695707D01*
X1619128Y747268D02*
X1631268D01*
X1593596Y721736D02*
X1619128Y747268D01*
X1475748Y432400D02*
Y484003D01*
X1475373Y484378D02*
X1475748Y484003D01*
X1437894Y422205D02*
Y512282D01*
X1455346Y419862D02*
X1455428Y419780D01*
X1440237Y419862D02*
X1455346D01*
X1437894Y422205D02*
X1440237Y419862D01*
X1456112Y531500D02*
X1457112D01*
X1452612Y528000D02*
X1456112Y531500D01*
X1452612Y527000D02*
Y528000D01*
X1437894Y512282D02*
X1452612Y527000D01*
X1632571Y654050D02*
X1633300Y653321D01*
X1704288Y690368D02*
X1706163D01*
X1707163Y691368D01*
Y698796D01*
X1709935Y701568D01*
X1710038D01*
X1687878Y690368D02*
X1704288D01*
X1685770Y688260D02*
X1687878Y690368D01*
X1670050Y688260D02*
X1685770D01*
X1648460D02*
X1670050D01*
X1631268Y747268D02*
Y766826D01*
X1662587Y767572D02*
X1664970Y765189D01*
X1559640Y528590D02*
X1561431Y530381D01*
X1559640Y511005D02*
Y528590D01*
X1561431Y530381D02*
X1561701D01*
X1572243Y540923D01*
Y548623D01*
X1545070Y487680D02*
X1551570D01*
X1556570Y492680D01*
Y507935D01*
X1559640Y511005D01*
X1457112Y531500D02*
Y548000D01*
X1455428Y432320D02*
X1455698D01*
X1457489Y434111D01*
Y434381D01*
X1459851Y436743D01*
X1475708Y419820D02*
X1475748Y419860D01*
X1455468Y419820D02*
X1475708D01*
X1455428Y419780D02*
X1455468Y419820D01*
X1645840Y527050D02*
Y547370D01*
Y509950D02*
Y527050D01*
X1624570Y488680D02*
X1645840Y509950D01*
X1645760Y588010D02*
X1645800Y588050D01*
Y608290D01*
X1645840Y608330D01*
X1645800Y567730D02*
X1645840Y567690D01*
X1645800Y567730D02*
Y587970D01*
X1645760Y588010D02*
X1645800Y587970D01*
X1645840Y547370D02*
Y567690D01*
X1594070Y487680D02*
Y523600D01*
X1604792Y534322D01*
X1606042D01*
D52*
X1752092Y479786D02*
D03*
Y566186D02*
D03*
X1751838Y615168D02*
D03*
Y701568D02*
D03*
D53*
X1710292Y479786D02*
D03*
Y566186D02*
D03*
X1710038Y615168D02*
D03*
Y701568D02*
D03*
D54*
X1715292Y551886D02*
D03*
Y494086D02*
D03*
X1715038Y687268D02*
D03*
Y629468D02*
D03*
D55*
X1734058Y389890D02*
D03*
X1449578Y755650D02*
D03*
X1729486Y753872D02*
D03*
X1453642Y385572D02*
D03*
D56*
X1545590Y475996D02*
D03*
X1581150D02*
D03*
X1636014D02*
D03*
X1722120Y458978D02*
D03*
D57*
X1521968Y560578D02*
D03*
X1530096D02*
D03*
X1538224Y560832D02*
D03*
X1545590Y561086D02*
D03*
X1620146Y582302D02*
D03*
X1686306Y550418D02*
D03*
X1619250Y594614D02*
D03*
X1580642Y562864D02*
D03*
X1578864Y574294D02*
D03*
X1503906Y522958D02*
D03*
X1435608Y660908D02*
D03*
X1435354Y669798D02*
D03*
X1459992Y467360D02*
D03*
X1627886Y367792D02*
D03*
X1519428Y371856D02*
D03*
X1552956Y374904D02*
D03*
X1531366Y402590D02*
D03*
X1543304Y402336D02*
D03*
X1564132Y394462D02*
D03*
X1534922Y717550D02*
D03*
X1682750Y510540D02*
D03*
X1553210Y720598D02*
D03*
X1641094Y730758D02*
D03*
X1621282Y730504D02*
D03*
X1590802Y682244D02*
D03*
X1686814Y647954D02*
D03*
X1504188Y574294D02*
D03*
X1617218Y392176D02*
D03*
X1625346Y390398D02*
D03*
D58*
X1579674Y601449D02*
D03*
X1683004Y532638D02*
D03*
X1689862Y515112D02*
D03*
X1582674Y625348D02*
D03*
X1581150Y619760D02*
D03*
X1593195Y663047D02*
D03*
X1589278Y659130D02*
D03*
X1682750Y525732D02*
D03*
Y520192D02*
D03*
X1583591Y605366D02*
D03*
X1672844Y664718D02*
D03*
X1670050Y659638D02*
D03*
D59*
X1544574Y729742D02*
D03*
X1643126Y782066D02*
D03*
M02*
