G04*
G04 #@! TF.GenerationSoftware,Altium Limited,Altium Designer,23.4.1 (23)*
G04*
G04 Layer_Color=16711935*
%FSLAX44Y44*%
%MOMM*%
G71*
G04*
G04 #@! TF.SameCoordinates,D1F9F651-E120-4EB1-B4AC-D2E1D016148F*
G04*
G04*
G04 #@! TF.FilePolarity,Negative*
G04*
G01*
G75*
G04:AMPARAMS|DCode=42|XSize=2.0032mm|YSize=1.2032mm|CornerRadius=0.3516mm|HoleSize=0mm|Usage=FLASHONLY|Rotation=180.000|XOffset=0mm|YOffset=0mm|HoleType=Round|Shape=RoundedRectangle|*
%AMROUNDEDRECTD42*
21,1,2.0032,0.5000,0,0,180.0*
21,1,1.3000,1.2032,0,0,180.0*
1,1,0.7032,-0.6500,0.2500*
1,1,0.7032,0.6500,0.2500*
1,1,0.7032,0.6500,-0.2500*
1,1,0.7032,-0.6500,-0.2500*
%
%ADD42ROUNDEDRECTD42*%
%ADD43O,2.3032X1.2032*%
%ADD44C,0.8532*%
%ADD45C,3.7032*%
%ADD46C,0.7032*%
%ADD47C,0.6032*%
%ADD48C,0.5032*%
%ADD49C,0.8032*%
D42*
X1752092Y479786D02*
D03*
Y566186D02*
D03*
X1751838Y615168D02*
D03*
Y701568D02*
D03*
D43*
X1710292Y479786D02*
D03*
Y566186D02*
D03*
X1710038Y615168D02*
D03*
Y701568D02*
D03*
D44*
X1715292Y551886D02*
D03*
Y494086D02*
D03*
X1715038Y687268D02*
D03*
Y629468D02*
D03*
D45*
X1734058Y389890D02*
D03*
X1449578Y755650D02*
D03*
X1729486Y753872D02*
D03*
X1453642Y385572D02*
D03*
D46*
X1545590Y475996D02*
D03*
X1581150D02*
D03*
X1636014D02*
D03*
X1722120Y458978D02*
D03*
D47*
X1521968Y560578D02*
D03*
X1530096D02*
D03*
X1538224Y560832D02*
D03*
X1545590Y561086D02*
D03*
X1620146Y582302D02*
D03*
X1686306Y550418D02*
D03*
X1619250Y594614D02*
D03*
X1580642Y562864D02*
D03*
X1578864Y574294D02*
D03*
X1503906Y522958D02*
D03*
X1435608Y660908D02*
D03*
X1435354Y669798D02*
D03*
X1459992Y467360D02*
D03*
X1627886Y367792D02*
D03*
X1519428Y371856D02*
D03*
X1552956Y374904D02*
D03*
X1531366Y402590D02*
D03*
X1543304Y402336D02*
D03*
X1564132Y394462D02*
D03*
X1534922Y717550D02*
D03*
X1682750Y510540D02*
D03*
X1553210Y720598D02*
D03*
X1641094Y730758D02*
D03*
X1621282Y730504D02*
D03*
X1590802Y682244D02*
D03*
X1686814Y647954D02*
D03*
X1504188Y574294D02*
D03*
X1617218Y392176D02*
D03*
X1625346Y390398D02*
D03*
D48*
X1579674Y601449D02*
D03*
X1683004Y532638D02*
D03*
X1689862Y515112D02*
D03*
X1582674Y625348D02*
D03*
X1581150Y619760D02*
D03*
X1593195Y663047D02*
D03*
X1589278Y659130D02*
D03*
X1682750Y525732D02*
D03*
Y520192D02*
D03*
X1583591Y605366D02*
D03*
X1672844Y664718D02*
D03*
X1670050Y659638D02*
D03*
D49*
X1544574Y729742D02*
D03*
X1643126Y782066D02*
D03*
M02*
